<mxfile host="app.diagrams.net" agent="Mozilla/5.0 (Windows NT 10.0; Win64; x64) AppleWebKit/537.36 (KHTML, like Gecko) Chrome/131.0.0.0 Safari/537.36" version="26.0.2">
  <diagram name="Database Mapping" id="0">
    <mxGraphModel dx="3585" dy="803" grid="1" gridSize="10" guides="1" tooltips="1" connect="1" arrows="1" fold="1" page="1" pageScale="1" pageWidth="1600" pageHeight="1200" math="0" shadow="0">
      <root>
        <mxCell id="0" />
        <mxCell id="1" parent="0" />
        <mxCell id="X7baBOl6zEnkR3U6Garj-69" value="" style="shape=table;startSize=0;container=1;collapsible=0;childLayout=tableLayout;fontSize=16;" parent="1" vertex="1">
          <mxGeometry x="10" y="460" width="750" height="40" as="geometry" />
        </mxCell>
        <mxCell id="X7baBOl6zEnkR3U6Garj-70" value="" style="shape=tableRow;horizontal=0;startSize=0;swimlaneHead=0;swimlaneBody=0;strokeColor=inherit;top=0;left=0;bottom=0;right=0;collapsible=0;dropTarget=0;fillColor=none;points=[[0,0.5],[1,0.5]];portConstraint=eastwest;fontSize=16;" parent="X7baBOl6zEnkR3U6Garj-69" vertex="1">
          <mxGeometry width="750" height="40" as="geometry" />
        </mxCell>
        <mxCell id="X7baBOl6zEnkR3U6Garj-71" value="" style="shape=partialRectangle;html=1;whiteSpace=wrap;connectable=0;strokeColor=inherit;overflow=hidden;fillColor=none;top=0;left=0;bottom=0;right=0;pointerEvents=1;fontSize=16;" parent="X7baBOl6zEnkR3U6Garj-70" vertex="1">
          <mxGeometry width="100" height="40" as="geometry">
            <mxRectangle width="100" height="40" as="alternateBounds" />
          </mxGeometry>
        </mxCell>
        <mxCell id="X7baBOl6zEnkR3U6Garj-72" value="" style="shape=partialRectangle;html=1;whiteSpace=wrap;connectable=0;strokeColor=inherit;overflow=hidden;fillColor=none;top=0;left=0;bottom=0;right=0;pointerEvents=1;fontSize=16;" parent="X7baBOl6zEnkR3U6Garj-70" vertex="1">
          <mxGeometry x="100" width="102" height="40" as="geometry">
            <mxRectangle width="102" height="40" as="alternateBounds" />
          </mxGeometry>
        </mxCell>
        <mxCell id="X7baBOl6zEnkR3U6Garj-73" value="" style="shape=partialRectangle;html=1;whiteSpace=wrap;connectable=0;strokeColor=inherit;overflow=hidden;fillColor=none;top=0;left=0;bottom=0;right=0;pointerEvents=1;fontSize=16;" parent="X7baBOl6zEnkR3U6Garj-70" vertex="1">
          <mxGeometry x="202" width="102" height="40" as="geometry">
            <mxRectangle width="102" height="40" as="alternateBounds" />
          </mxGeometry>
        </mxCell>
        <mxCell id="X7baBOl6zEnkR3U6Garj-74" value="" style="shape=partialRectangle;html=1;whiteSpace=wrap;connectable=0;strokeColor=inherit;overflow=hidden;fillColor=none;top=0;left=0;bottom=0;right=0;pointerEvents=1;fontSize=16;" parent="X7baBOl6zEnkR3U6Garj-70" vertex="1">
          <mxGeometry x="304" width="102" height="40" as="geometry">
            <mxRectangle width="102" height="40" as="alternateBounds" />
          </mxGeometry>
        </mxCell>
        <mxCell id="X7baBOl6zEnkR3U6Garj-75" value="" style="shape=partialRectangle;html=1;whiteSpace=wrap;connectable=0;strokeColor=inherit;overflow=hidden;fillColor=none;top=0;left=0;bottom=0;right=0;pointerEvents=1;fontSize=16;" parent="X7baBOl6zEnkR3U6Garj-70" vertex="1">
          <mxGeometry x="406" width="84" height="40" as="geometry">
            <mxRectangle width="84" height="40" as="alternateBounds" />
          </mxGeometry>
        </mxCell>
        <mxCell id="X7baBOl6zEnkR3U6Garj-77" value="&lt;span style=&quot;font-size:11.0pt;line-height:107%;&lt;br/&gt;font-family:&amp;quot;Rockwell&amp;quot;,serif;mso-ascii-theme-font:minor-latin;mso-fareast-font-family:&lt;br/&gt;Rockwell;mso-fareast-theme-font:minor-latin;mso-hansi-theme-font:minor-latin;&lt;br/&gt;mso-bidi-font-family:Arial;mso-bidi-theme-font:minor-bidi;mso-ansi-language:&lt;br/&gt;EN-US;mso-fareast-language:EN-US;mso-bidi-language:AR-SA&quot;&gt;number_of_people&lt;/span&gt;" style="shape=partialRectangle;html=1;whiteSpace=wrap;connectable=0;strokeColor=inherit;overflow=hidden;fillColor=none;top=0;left=0;bottom=0;right=0;pointerEvents=1;fontSize=16;" parent="X7baBOl6zEnkR3U6Garj-70" vertex="1">
          <mxGeometry x="490" width="130" height="40" as="geometry">
            <mxRectangle width="130" height="40" as="alternateBounds" />
          </mxGeometry>
        </mxCell>
        <mxCell id="X7baBOl6zEnkR3U6Garj-78" value="&lt;span style=&quot;font-size:11.0pt;line-height:107%;&lt;br/&gt;font-family:&amp;quot;Rockwell&amp;quot;,serif;mso-ascii-theme-font:minor-latin;mso-fareast-font-family:&lt;br/&gt;Rockwell;mso-fareast-theme-font:minor-latin;mso-hansi-theme-font:minor-latin;&lt;br/&gt;mso-bidi-font-family:Arial;mso-bidi-theme-font:minor-bidi;mso-ansi-language:&lt;br/&gt;EN-US;mso-fareast-language:EN-US;mso-bidi-language:AR-SA&quot;&gt;phone_number&amp;nbsp;&lt;/span&gt;" style="shape=partialRectangle;html=1;whiteSpace=wrap;connectable=0;strokeColor=inherit;overflow=hidden;fillColor=none;top=0;left=0;bottom=0;right=0;pointerEvents=1;fontSize=16;" parent="X7baBOl6zEnkR3U6Garj-70" vertex="1">
          <mxGeometry x="620" width="130" height="40" as="geometry">
            <mxRectangle width="130" height="40" as="alternateBounds" />
          </mxGeometry>
        </mxCell>
        <mxCell id="X7baBOl6zEnkR3U6Garj-119" value="" style="shape=table;startSize=0;container=1;collapsible=0;childLayout=tableLayout;fontSize=16;" parent="1" vertex="1">
          <mxGeometry x="150" y="170" width="580" height="40" as="geometry" />
        </mxCell>
        <mxCell id="X7baBOl6zEnkR3U6Garj-120" value="" style="shape=tableRow;horizontal=0;startSize=0;swimlaneHead=0;swimlaneBody=0;strokeColor=inherit;top=0;left=0;bottom=0;right=0;collapsible=0;dropTarget=0;fillColor=none;points=[[0,0.5],[1,0.5]];portConstraint=eastwest;fontSize=16;" parent="X7baBOl6zEnkR3U6Garj-119" vertex="1">
          <mxGeometry width="580" height="40" as="geometry" />
        </mxCell>
        <mxCell id="X7baBOl6zEnkR3U6Garj-121" value="&lt;span style=&quot;font-size: 14.6667px;&quot;&gt;first_name&lt;/span&gt;" style="shape=partialRectangle;html=1;whiteSpace=wrap;connectable=0;strokeColor=inherit;overflow=hidden;fillColor=none;top=0;left=0;bottom=0;right=0;pointerEvents=1;fontSize=16;" parent="X7baBOl6zEnkR3U6Garj-120" vertex="1">
          <mxGeometry width="90" height="40" as="geometry">
            <mxRectangle width="90" height="40" as="alternateBounds" />
          </mxGeometry>
        </mxCell>
        <mxCell id="X7baBOl6zEnkR3U6Garj-122" value="&lt;span style=&quot;font-size:11.0pt;line-height:107%;&lt;br/&gt;font-family:&amp;quot;Rockwell&amp;quot;,serif;mso-ascii-theme-font:minor-latin;mso-fareast-font-family:&lt;br/&gt;Rockwell;mso-fareast-theme-font:minor-latin;mso-hansi-theme-font:minor-latin;&lt;br/&gt;mso-bidi-font-family:Arial;mso-bidi-theme-font:minor-bidi;mso-ansi-language:&lt;br/&gt;EN-US;mso-fareast-language:EN-US;mso-bidi-language:AR-SA&quot;&gt;phone_number&amp;nbsp;&lt;/span&gt;" style="shape=partialRectangle;html=1;whiteSpace=wrap;connectable=0;strokeColor=inherit;overflow=hidden;fillColor=none;top=0;left=0;bottom=0;right=0;pointerEvents=1;fontSize=16;" parent="X7baBOl6zEnkR3U6Garj-120" vertex="1">
          <mxGeometry x="90" width="142" height="40" as="geometry">
            <mxRectangle width="142" height="40" as="alternateBounds" />
          </mxGeometry>
        </mxCell>
        <mxCell id="X7baBOl6zEnkR3U6Garj-123" value="&lt;span style=&quot;font-size:11.0pt;line-height:107%;&lt;br/&gt;font-family:&amp;quot;Rockwell&amp;quot;,serif;mso-ascii-theme-font:minor-latin;mso-fareast-font-family:&lt;br/&gt;Rockwell;mso-fareast-theme-font:minor-latin;mso-hansi-theme-font:minor-latin;&lt;br/&gt;mso-bidi-font-family:Arial;mso-bidi-theme-font:minor-bidi;mso-ansi-language:&lt;br/&gt;EN-US;mso-fareast-language:EN-US;mso-bidi-language:AR-SA&quot;&gt;email&amp;nbsp;&lt;/span&gt;" style="shape=partialRectangle;html=1;whiteSpace=wrap;connectable=0;strokeColor=inherit;overflow=hidden;fillColor=none;top=0;left=0;bottom=0;right=0;pointerEvents=1;fontSize=16;" parent="X7baBOl6zEnkR3U6Garj-120" vertex="1">
          <mxGeometry x="232" width="116" height="40" as="geometry">
            <mxRectangle width="116" height="40" as="alternateBounds" />
          </mxGeometry>
        </mxCell>
        <mxCell id="X7baBOl6zEnkR3U6Garj-124" value="&lt;span style=&quot;font-size:11.0pt;line-height:107%;&lt;br/&gt;font-family:&amp;quot;Rockwell&amp;quot;,serif;mso-ascii-theme-font:minor-latin;mso-fareast-font-family:&lt;br/&gt;Rockwell;mso-fareast-theme-font:minor-latin;mso-hansi-theme-font:minor-latin;&lt;br/&gt;mso-bidi-font-family:Arial;mso-bidi-theme-font:minor-bidi;mso-ansi-language:&lt;br/&gt;EN-US;mso-fareast-language:EN-US;mso-bidi-language:AR-SA&quot;&gt;address&amp;nbsp;&lt;/span&gt;" style="shape=partialRectangle;html=1;whiteSpace=wrap;connectable=0;strokeColor=inherit;overflow=hidden;fillColor=none;top=0;left=0;bottom=0;right=0;pointerEvents=1;fontSize=16;" parent="X7baBOl6zEnkR3U6Garj-120" vertex="1">
          <mxGeometry x="348" width="116" height="40" as="geometry">
            <mxRectangle width="116" height="40" as="alternateBounds" />
          </mxGeometry>
        </mxCell>
        <mxCell id="X7baBOl6zEnkR3U6Garj-125" value="&lt;span style=&quot;font-size:11.0pt;line-height:107%;&lt;br/&gt;font-family:&amp;quot;Rockwell&amp;quot;,serif;mso-ascii-theme-font:minor-latin;mso-fareast-font-family:&lt;br/&gt;Rockwell;mso-fareast-theme-font:minor-latin;mso-hansi-theme-font:minor-latin;&lt;br/&gt;mso-bidi-font-family:Arial;mso-bidi-theme-font:minor-bidi;mso-ansi-language:&lt;br/&gt;EN-US;mso-fareast-language:EN-US;mso-bidi-language:AR-SA&quot;&gt;job_type&amp;nbsp;&lt;/span&gt;" style="shape=partialRectangle;html=1;whiteSpace=wrap;connectable=0;strokeColor=inherit;overflow=hidden;fillColor=none;top=0;left=0;bottom=0;right=0;pointerEvents=1;fontSize=16;" parent="X7baBOl6zEnkR3U6Garj-120" vertex="1">
          <mxGeometry x="464" width="116" height="40" as="geometry">
            <mxRectangle width="116" height="40" as="alternateBounds" />
          </mxGeometry>
        </mxCell>
        <mxCell id="X7baBOl6zEnkR3U6Garj-126" value="&lt;b&gt;&lt;span style=&quot;font-size: 11pt; line-height: 107%;&quot;&gt;Employee&lt;/span&gt;&lt;/b&gt;" style="text;strokeColor=none;fillColor=none;html=1;fontSize=24;fontStyle=1;verticalAlign=middle;align=center;fontColor=#00FF00;" parent="1" vertex="1">
          <mxGeometry y="110" width="100" height="40" as="geometry" />
        </mxCell>
        <mxCell id="X7baBOl6zEnkR3U6Garj-133" value="" style="shape=table;startSize=0;container=1;collapsible=0;childLayout=tableLayout;fontSize=16;" parent="1" vertex="1">
          <mxGeometry x="63" y="260" width="100" height="40" as="geometry" />
        </mxCell>
        <mxCell id="X7baBOl6zEnkR3U6Garj-134" value="" style="shape=tableRow;horizontal=0;startSize=0;swimlaneHead=0;swimlaneBody=0;strokeColor=inherit;top=0;left=0;bottom=0;right=0;collapsible=0;dropTarget=0;fillColor=none;points=[[0,0.5],[1,0.5]];portConstraint=eastwest;fontSize=16;" parent="X7baBOl6zEnkR3U6Garj-133" vertex="1">
          <mxGeometry width="100" height="40" as="geometry" />
        </mxCell>
        <mxCell id="X7baBOl6zEnkR3U6Garj-135" value="&lt;span style=&quot;font-size: 14.6667px;&quot;&gt;first_name&lt;/span&gt;" style="shape=partialRectangle;html=1;whiteSpace=wrap;connectable=0;strokeColor=inherit;overflow=hidden;fillColor=none;top=0;left=0;bottom=0;right=0;pointerEvents=1;fontSize=16;" parent="X7baBOl6zEnkR3U6Garj-134" vertex="1">
          <mxGeometry width="100" height="40" as="geometry">
            <mxRectangle width="100" height="40" as="alternateBounds" />
          </mxGeometry>
        </mxCell>
        <mxCell id="X7baBOl6zEnkR3U6Garj-136" value="&lt;b&gt;&lt;span style=&quot;font-size: 11pt; line-height: 107%;&quot;&gt;Customer&lt;/span&gt;&lt;/b&gt;" style="text;strokeColor=none;fillColor=none;html=1;fontSize=16;fontStyle=1;verticalAlign=middle;align=center;fontFamily=Helvetica;fontColor=#00FF00;" parent="1" vertex="1">
          <mxGeometry y="220" width="100" height="40" as="geometry" />
        </mxCell>
        <mxCell id="X7baBOl6zEnkR3U6Garj-137" value="&lt;span style=&quot;font-size:11.0pt;line-height:107%;&lt;br/&gt;font-family:&amp;quot;Rockwell&amp;quot;,serif;mso-ascii-theme-font:minor-latin;mso-fareast-font-family:&lt;br/&gt;Rockwell;mso-fareast-theme-font:minor-latin;mso-hansi-theme-font:minor-latin;&lt;br/&gt;mso-bidi-font-family:Arial;mso-bidi-theme-font:minor-bidi;mso-ansi-language:&lt;br/&gt;EN-US;mso-fareast-language:EN-US;mso-bidi-language:AR-SA&quot;&gt;&lt;u&gt;reservation_id&lt;/u&gt;&lt;/span&gt;" style="shape=partialRectangle;html=1;whiteSpace=wrap;connectable=0;strokeColor=inherit;overflow=hidden;fillColor=none;top=0;left=0;bottom=0;right=0;pointerEvents=1;fontSize=16;" parent="1" vertex="1">
          <mxGeometry x="10" y="460" width="100" height="40" as="geometry">
            <mxRectangle width="68" height="40" as="alternateBounds" />
          </mxGeometry>
        </mxCell>
        <mxCell id="X7baBOl6zEnkR3U6Garj-138" value="&lt;span style=&quot;font-size:11.0pt;line-height:107%;&lt;br/&gt;font-family:&amp;quot;Rockwell&amp;quot;,serif;mso-ascii-theme-font:minor-latin;mso-fareast-font-family:&lt;br/&gt;Rockwell;mso-fareast-theme-font:minor-latin;mso-hansi-theme-font:minor-latin;&lt;br/&gt;mso-bidi-font-family:Arial;mso-bidi-theme-font:minor-bidi;mso-ansi-language:&lt;br/&gt;EN-US;mso-fareast-language:EN-US;mso-bidi-language:AR-SA&quot;&gt;start_time&amp;nbsp;&lt;/span&gt;" style="shape=partialRectangle;html=1;whiteSpace=wrap;connectable=0;strokeColor=inherit;overflow=hidden;fillColor=none;top=0;left=0;bottom=0;right=0;pointerEvents=1;fontSize=16;" parent="1" vertex="1">
          <mxGeometry x="130" y="460" width="82" height="40" as="geometry">
            <mxRectangle width="134" height="40" as="alternateBounds" />
          </mxGeometry>
        </mxCell>
        <mxCell id="X7baBOl6zEnkR3U6Garj-139" value="&lt;span style=&quot;font-size:11.0pt;line-height:107%;&lt;br/&gt;font-family:&amp;quot;Rockwell&amp;quot;,serif;mso-ascii-theme-font:minor-latin;mso-fareast-font-family:&lt;br/&gt;Rockwell;mso-fareast-theme-font:minor-latin;mso-hansi-theme-font:minor-latin;&lt;br/&gt;mso-bidi-font-family:Arial;mso-bidi-theme-font:minor-bidi;mso-ansi-language:&lt;br/&gt;EN-US;mso-fareast-language:EN-US;mso-bidi-language:AR-SA&quot;&gt;end_time&amp;nbsp;&lt;/span&gt;" style="shape=partialRectangle;html=1;whiteSpace=wrap;connectable=0;strokeColor=inherit;overflow=hidden;fillColor=none;top=0;left=0;bottom=0;right=0;pointerEvents=1;fontSize=16;" parent="1" vertex="1">
          <mxGeometry x="212" y="460" width="102" height="40" as="geometry">
            <mxRectangle width="102" height="40" as="alternateBounds" />
          </mxGeometry>
        </mxCell>
        <mxCell id="X7baBOl6zEnkR3U6Garj-140" value="&lt;span style=&quot;font-size:11.0pt;line-height:107%;&lt;br/&gt;font-family:&amp;quot;Rockwell&amp;quot;,serif;mso-ascii-theme-font:minor-latin;mso-fareast-font-family:&lt;br/&gt;Rockwell;mso-fareast-theme-font:minor-latin;mso-hansi-theme-font:minor-latin;&lt;br/&gt;mso-bidi-font-family:Arial;mso-bidi-theme-font:minor-bidi;mso-ansi-language:&lt;br/&gt;EN-US;mso-fareast-language:EN-US;mso-bidi-language:AR-SA&quot;&gt;date&lt;/span&gt;" style="shape=partialRectangle;html=1;whiteSpace=wrap;connectable=0;strokeColor=inherit;overflow=hidden;fillColor=none;top=0;left=0;bottom=0;right=0;pointerEvents=1;fontSize=16;" parent="1" vertex="1">
          <mxGeometry x="314" y="460" width="102" height="40" as="geometry">
            <mxRectangle width="102" height="40" as="alternateBounds" />
          </mxGeometry>
        </mxCell>
        <mxCell id="X7baBOl6zEnkR3U6Garj-141" value="&lt;span style=&quot;font-size:11.0pt;line-height:107%;&lt;br/&gt;font-family:&amp;quot;Rockwell&amp;quot;,serif;mso-ascii-theme-font:minor-latin;mso-fareast-font-family:&lt;br/&gt;Rockwell;mso-fareast-theme-font:minor-latin;mso-hansi-theme-font:minor-latin;&lt;br/&gt;mso-bidi-font-family:Arial;mso-bidi-theme-font:minor-bidi;mso-ansi-language:&lt;br/&gt;EN-US;mso-fareast-language:EN-US;mso-bidi-language:AR-SA&quot;&gt;job_type&amp;nbsp;&lt;/span&gt;" style="shape=partialRectangle;html=1;whiteSpace=wrap;connectable=0;strokeColor=inherit;overflow=hidden;fillColor=none;top=0;left=0;bottom=0;right=0;pointerEvents=1;fontSize=16;" parent="1" vertex="1">
          <mxGeometry x="416" y="460" width="84" height="40" as="geometry">
            <mxRectangle width="84" height="40" as="alternateBounds" />
          </mxGeometry>
        </mxCell>
        <mxCell id="X7baBOl6zEnkR3U6Garj-142" value="&lt;b&gt;&lt;span style=&quot;font-size: 11pt; line-height: 107%;&quot;&gt;Reservation&lt;/span&gt;&lt;/b&gt;" style="text;strokeColor=none;fillColor=none;html=1;fontSize=16;fontStyle=1;verticalAlign=middle;align=center;fontFamily=Helvetica;fontColor=#00FF00;" parent="1" vertex="1">
          <mxGeometry x="-50" y="430" width="100" height="40" as="geometry" />
        </mxCell>
        <mxCell id="X7baBOl6zEnkR3U6Garj-143" value="" style="shape=table;startSize=0;container=1;collapsible=0;childLayout=tableLayout;fontSize=16;" parent="1" vertex="1">
          <mxGeometry x="110" y="530" width="580" height="40" as="geometry" />
        </mxCell>
        <mxCell id="X7baBOl6zEnkR3U6Garj-144" value="" style="shape=tableRow;horizontal=0;startSize=0;swimlaneHead=0;swimlaneBody=0;strokeColor=inherit;top=0;left=0;bottom=0;right=0;collapsible=0;dropTarget=0;fillColor=none;points=[[0,0.5],[1,0.5]];portConstraint=eastwest;fontSize=16;" parent="X7baBOl6zEnkR3U6Garj-143" vertex="1">
          <mxGeometry width="580" height="40" as="geometry" />
        </mxCell>
        <mxCell id="X7baBOl6zEnkR3U6Garj-145" value="&lt;span style=&quot;font-size:11.0pt;line-height:107%;&lt;br/&gt;font-family:&amp;quot;Rockwell&amp;quot;,serif;mso-ascii-theme-font:minor-latin;mso-fareast-font-family:&lt;br/&gt;Rockwell;mso-fareast-theme-font:minor-latin;mso-hansi-theme-font:minor-latin;&lt;br/&gt;mso-bidi-font-family:Arial;mso-bidi-theme-font:minor-bidi;mso-ansi-language:&lt;br/&gt;EN-US;mso-fareast-language:EN-US;mso-bidi-language:AR-SA&quot;&gt;order_id&lt;/span&gt;" style="shape=partialRectangle;html=1;whiteSpace=wrap;connectable=0;strokeColor=inherit;overflow=hidden;fillColor=none;top=0;left=0;bottom=0;right=0;pointerEvents=1;fontSize=16;" parent="X7baBOl6zEnkR3U6Garj-144" vertex="1">
          <mxGeometry width="60" height="40" as="geometry">
            <mxRectangle width="60" height="40" as="alternateBounds" />
          </mxGeometry>
        </mxCell>
        <mxCell id="X7baBOl6zEnkR3U6Garj-146" value="&lt;span style=&quot;font-size:11.0pt;line-height:107%;&lt;br/&gt;font-family:&amp;quot;Rockwell&amp;quot;,serif;mso-ascii-theme-font:minor-latin;mso-fareast-font-family:&lt;br/&gt;Rockwell;mso-fareast-theme-font:minor-latin;mso-hansi-theme-font:minor-latin;&lt;br/&gt;mso-bidi-font-family:Arial;mso-bidi-theme-font:minor-bidi;mso-ansi-language:&lt;br/&gt;EN-US;mso-fareast-language:EN-US;mso-bidi-language:AR-SA&quot;&gt;type&amp;nbsp;&lt;/span&gt;" style="shape=partialRectangle;html=1;whiteSpace=wrap;connectable=0;strokeColor=inherit;overflow=hidden;fillColor=none;top=0;left=0;bottom=0;right=0;pointerEvents=1;fontSize=16;" parent="X7baBOl6zEnkR3U6Garj-144" vertex="1">
          <mxGeometry x="60" width="100" height="40" as="geometry">
            <mxRectangle width="100" height="40" as="alternateBounds" />
          </mxGeometry>
        </mxCell>
        <mxCell id="X7baBOl6zEnkR3U6Garj-147" value="&lt;span style=&quot;font-size:11.0pt;line-height:107%;&lt;br/&gt;font-family:&amp;quot;Rockwell&amp;quot;,serif;mso-ascii-theme-font:minor-latin;mso-fareast-font-family:&lt;br/&gt;Rockwell;mso-fareast-theme-font:minor-latin;mso-hansi-theme-font:minor-latin;&lt;br/&gt;mso-bidi-font-family:Arial;mso-bidi-theme-font:minor-bidi;mso-ansi-language:&lt;br/&gt;EN-US;mso-fareast-language:EN-US;mso-bidi-language:AR-SA&quot;&gt;number_order&lt;/span&gt;" style="shape=partialRectangle;html=1;whiteSpace=wrap;connectable=0;strokeColor=inherit;overflow=hidden;fillColor=none;top=0;left=0;bottom=0;right=0;pointerEvents=1;fontSize=16;" parent="X7baBOl6zEnkR3U6Garj-144" vertex="1">
          <mxGeometry x="160" width="110" height="40" as="geometry">
            <mxRectangle width="110" height="40" as="alternateBounds" />
          </mxGeometry>
        </mxCell>
        <mxCell id="X7baBOl6zEnkR3U6Garj-148" value="&lt;span style=&quot;font-size:11.0pt;line-height:107%;&lt;br/&gt;font-family:&amp;quot;Rockwell&amp;quot;,serif;mso-ascii-theme-font:minor-latin;mso-fareast-font-family:&lt;br/&gt;Rockwell;mso-fareast-theme-font:minor-latin;mso-hansi-theme-font:minor-latin;&lt;br/&gt;mso-bidi-font-family:Arial;mso-bidi-theme-font:minor-bidi;mso-ansi-language:&lt;br/&gt;EN-US;mso-fareast-language:EN-US;mso-bidi-language:AR-SA&quot;&gt;total_amount&amp;nbsp;&lt;/span&gt;" style="shape=partialRectangle;html=1;whiteSpace=wrap;connectable=0;strokeColor=inherit;overflow=hidden;fillColor=none;top=0;left=0;bottom=0;right=0;pointerEvents=1;fontSize=16;" parent="X7baBOl6zEnkR3U6Garj-144" vertex="1">
          <mxGeometry x="270" width="110" height="40" as="geometry">
            <mxRectangle width="110" height="40" as="alternateBounds" />
          </mxGeometry>
        </mxCell>
        <mxCell id="X7baBOl6zEnkR3U6Garj-149" value="&lt;span style=&quot;font-size:11.0pt;line-height:107%;&lt;br/&gt;font-family:&amp;quot;Rockwell&amp;quot;,serif;mso-ascii-theme-font:minor-latin;mso-fareast-font-family:&lt;br/&gt;Rockwell;mso-fareast-theme-font:minor-latin;mso-hansi-theme-font:minor-latin;&lt;br/&gt;mso-bidi-font-family:Arial;mso-bidi-theme-font:minor-bidi;mso-ansi-language:&lt;br/&gt;EN-US;mso-fareast-language:EN-US;mso-bidi-language:AR-SA&quot;&gt;pay_type&amp;nbsp;&lt;/span&gt;" style="shape=partialRectangle;html=1;whiteSpace=wrap;connectable=0;strokeColor=inherit;overflow=hidden;fillColor=none;top=0;left=0;bottom=0;right=0;pointerEvents=1;fontSize=16;" parent="X7baBOl6zEnkR3U6Garj-144" vertex="1">
          <mxGeometry x="380" width="80" height="40" as="geometry">
            <mxRectangle width="80" height="40" as="alternateBounds" />
          </mxGeometry>
        </mxCell>
        <mxCell id="X7baBOl6zEnkR3U6Garj-150" value="&lt;span style=&quot;font-size:11.0pt;line-height:107%;&lt;br/&gt;font-family:&amp;quot;Rockwell&amp;quot;,serif;mso-ascii-theme-font:minor-latin;mso-fareast-font-family:&lt;br/&gt;Rockwell;mso-fareast-theme-font:minor-latin;mso-hansi-theme-font:minor-latin;&lt;br/&gt;mso-bidi-font-family:Arial;mso-bidi-theme-font:minor-bidi;mso-ansi-language:&lt;br/&gt;EN-US;mso-fareast-language:EN-US;mso-bidi-language:AR-SA&quot;&gt;preparation_time&amp;nbsp;&lt;/span&gt;" style="shape=partialRectangle;html=1;whiteSpace=wrap;connectable=0;strokeColor=inherit;overflow=hidden;fillColor=none;top=0;left=0;bottom=0;right=0;pointerEvents=1;fontSize=16;" parent="X7baBOl6zEnkR3U6Garj-144" vertex="1">
          <mxGeometry x="460" width="120" height="40" as="geometry">
            <mxRectangle width="120" height="40" as="alternateBounds" />
          </mxGeometry>
        </mxCell>
        <mxCell id="X7baBOl6zEnkR3U6Garj-151" value="&lt;b&gt;&lt;span style=&quot;font-size: 11pt; line-height: 107%;&quot;&gt;Order&lt;/span&gt;&lt;/b&gt;" style="text;strokeColor=none;fillColor=none;html=1;fontSize=16;fontStyle=1;verticalAlign=middle;align=center;fontFamily=Helvetica;fontColor=#00FF00;" parent="1" vertex="1">
          <mxGeometry x="50" y="500" width="100" height="40" as="geometry" />
        </mxCell>
        <mxCell id="X7baBOl6zEnkR3U6Garj-158" value="" style="shape=table;startSize=0;container=1;collapsible=0;childLayout=tableLayout;fontSize=16;" parent="1" vertex="1">
          <mxGeometry x="930" y="620" width="360" height="40" as="geometry" />
        </mxCell>
        <mxCell id="X7baBOl6zEnkR3U6Garj-159" value="" style="shape=tableRow;horizontal=0;startSize=0;swimlaneHead=0;swimlaneBody=0;strokeColor=inherit;top=0;left=0;bottom=0;right=0;collapsible=0;dropTarget=0;fillColor=none;points=[[0,0.5],[1,0.5]];portConstraint=eastwest;fontSize=16;" parent="X7baBOl6zEnkR3U6Garj-158" vertex="1">
          <mxGeometry width="360" height="40" as="geometry" />
        </mxCell>
        <mxCell id="X7baBOl6zEnkR3U6Garj-160" value="&lt;span style=&quot;font-size:11.0pt;line-height:107%;&lt;br/&gt;font-family:&amp;quot;Rockwell&amp;quot;,serif;mso-ascii-theme-font:minor-latin;mso-fareast-font-family:&lt;br/&gt;Rockwell;mso-fareast-theme-font:minor-latin;mso-hansi-theme-font:minor-latin;&lt;br/&gt;mso-bidi-font-family:Arial;mso-bidi-theme-font:minor-bidi;mso-ansi-language:&lt;br/&gt;EN-US;mso-fareast-language:EN-US;mso-bidi-language:AR-SA&quot;&gt;&lt;u&gt;product_id&lt;/u&gt;&lt;/span&gt;" style="shape=partialRectangle;html=1;whiteSpace=wrap;connectable=0;strokeColor=inherit;overflow=hidden;fillColor=none;top=0;left=0;bottom=0;right=0;pointerEvents=1;fontSize=16;" parent="X7baBOl6zEnkR3U6Garj-159" vertex="1">
          <mxGeometry width="90" height="40" as="geometry">
            <mxRectangle width="90" height="40" as="alternateBounds" />
          </mxGeometry>
        </mxCell>
        <mxCell id="X7baBOl6zEnkR3U6Garj-161" value="&lt;span style=&quot;font-size:11.0pt;line-height:107%;&lt;br/&gt;font-family:&amp;quot;Rockwell&amp;quot;,serif;mso-ascii-theme-font:minor-latin;mso-fareast-font-family:&lt;br/&gt;Rockwell;mso-fareast-theme-font:minor-latin;mso-hansi-theme-font:minor-latin;&lt;br/&gt;mso-bidi-font-family:Arial;mso-bidi-theme-font:minor-bidi;mso-ansi-language:&lt;br/&gt;EN-US;mso-fareast-language:EN-US;mso-bidi-language:AR-SA&quot;&gt;name&amp;nbsp;&lt;/span&gt;" style="shape=partialRectangle;html=1;whiteSpace=wrap;connectable=0;strokeColor=inherit;overflow=hidden;fillColor=none;top=0;left=0;bottom=0;right=0;pointerEvents=1;fontSize=16;" parent="X7baBOl6zEnkR3U6Garj-159" vertex="1">
          <mxGeometry x="90" width="90" height="40" as="geometry">
            <mxRectangle width="90" height="40" as="alternateBounds" />
          </mxGeometry>
        </mxCell>
        <mxCell id="X7baBOl6zEnkR3U6Garj-162" value="&lt;span style=&quot;font-size:11.0pt;line-height:107%;&lt;br/&gt;font-family:&amp;quot;Rockwell&amp;quot;,serif;mso-ascii-theme-font:minor-latin;mso-fareast-font-family:&lt;br/&gt;Rockwell;mso-fareast-theme-font:minor-latin;mso-hansi-theme-font:minor-latin;&lt;br/&gt;mso-bidi-font-family:Arial;mso-bidi-theme-font:minor-bidi;mso-ansi-language:&lt;br/&gt;EN-US;mso-fareast-language:EN-US;mso-bidi-language:AR-SA&quot;&gt;number&amp;nbsp;&lt;/span&gt;" style="shape=partialRectangle;html=1;whiteSpace=wrap;connectable=0;strokeColor=inherit;overflow=hidden;fillColor=none;top=0;left=0;bottom=0;right=0;pointerEvents=1;fontSize=16;" parent="X7baBOl6zEnkR3U6Garj-159" vertex="1">
          <mxGeometry x="180" width="90" height="40" as="geometry">
            <mxRectangle width="90" height="40" as="alternateBounds" />
          </mxGeometry>
        </mxCell>
        <mxCell id="X7baBOl6zEnkR3U6Garj-163" value="&lt;span style=&quot;font-size:11.0pt;line-height:107%;&lt;br/&gt;font-family:&amp;quot;Rockwell&amp;quot;,serif;mso-ascii-theme-font:minor-latin;mso-fareast-font-family:&lt;br/&gt;Rockwell;mso-fareast-theme-font:minor-latin;mso-hansi-theme-font:minor-latin;&lt;br/&gt;mso-bidi-font-family:Arial;mso-bidi-theme-font:minor-bidi;mso-ansi-language:&lt;br/&gt;EN-US;mso-fareast-language:EN-US;mso-bidi-language:AR-SA&quot;&gt;quantity&amp;nbsp;&lt;/span&gt;" style="shape=partialRectangle;html=1;whiteSpace=wrap;connectable=0;strokeColor=inherit;overflow=hidden;fillColor=none;top=0;left=0;bottom=0;right=0;pointerEvents=1;fontSize=16;" parent="X7baBOl6zEnkR3U6Garj-159" vertex="1">
          <mxGeometry x="270" width="90" height="40" as="geometry">
            <mxRectangle width="90" height="40" as="alternateBounds" />
          </mxGeometry>
        </mxCell>
        <mxCell id="X7baBOl6zEnkR3U6Garj-164" value="&lt;b&gt;&lt;span style=&quot;font-size: 11pt; line-height: 107%;&quot;&gt;Product Inventory&lt;/span&gt;&lt;/b&gt;" style="text;strokeColor=none;fillColor=none;html=1;fontSize=16;fontStyle=1;verticalAlign=middle;align=center;fontFamily=Helvetica;fontColor=#00FF00;" parent="1" vertex="1">
          <mxGeometry x="945" y="580" width="100" height="40" as="geometry" />
        </mxCell>
        <mxCell id="X7baBOl6zEnkR3U6Garj-165" value="" style="shape=table;startSize=0;container=1;collapsible=0;childLayout=tableLayout;fontSize=16;" parent="1" vertex="1">
          <mxGeometry x="904" y="370" width="460" height="40" as="geometry" />
        </mxCell>
        <mxCell id="X7baBOl6zEnkR3U6Garj-166" value="" style="shape=tableRow;horizontal=0;startSize=0;swimlaneHead=0;swimlaneBody=0;strokeColor=inherit;top=0;left=0;bottom=0;right=0;collapsible=0;dropTarget=0;fillColor=none;points=[[0,0.5],[1,0.5]];portConstraint=eastwest;fontSize=16;" parent="X7baBOl6zEnkR3U6Garj-165" vertex="1">
          <mxGeometry width="460" height="40" as="geometry" />
        </mxCell>
        <mxCell id="X7baBOl6zEnkR3U6Garj-167" value="&lt;span style=&quot;font-size: 13.3333px;&quot;&gt;name&amp;nbsp;&lt;/span&gt;" style="shape=partialRectangle;html=1;whiteSpace=wrap;connectable=0;strokeColor=inherit;overflow=hidden;fillColor=none;top=0;left=0;bottom=0;right=0;pointerEvents=1;fontSize=16;" parent="X7baBOl6zEnkR3U6Garj-166" vertex="1">
          <mxGeometry width="80" height="40" as="geometry">
            <mxRectangle width="80" height="40" as="alternateBounds" />
          </mxGeometry>
        </mxCell>
        <mxCell id="X7baBOl6zEnkR3U6Garj-168" value="&lt;span style=&quot;font-size:10.0pt;line-height:107%;&lt;br/&gt;font-family:&amp;quot;Rockwell&amp;quot;,serif;mso-ascii-theme-font:minor-latin;mso-fareast-font-family:&lt;br/&gt;Rockwell;mso-fareast-theme-font:minor-latin;mso-hansi-theme-font:minor-latin;&lt;br/&gt;mso-bidi-font-family:Arial;mso-bidi-theme-font:minor-bidi;mso-ansi-language:&lt;br/&gt;EN-US;mso-fareast-language:EN-US;mso-bidi-language:AR-SA&quot;&gt;amount&amp;nbsp;&lt;/span&gt;" style="shape=partialRectangle;html=1;whiteSpace=wrap;connectable=0;strokeColor=inherit;overflow=hidden;fillColor=none;top=0;left=0;bottom=0;right=0;pointerEvents=1;fontSize=16;" parent="X7baBOl6zEnkR3U6Garj-166" vertex="1">
          <mxGeometry x="80" width="100" height="40" as="geometry">
            <mxRectangle width="100" height="40" as="alternateBounds" />
          </mxGeometry>
        </mxCell>
        <mxCell id="X7baBOl6zEnkR3U6Garj-169" value="&lt;span style=&quot;font-size:10.0pt;line-height:107%;&lt;br/&gt;font-family:&amp;quot;Rockwell&amp;quot;,serif;mso-ascii-theme-font:minor-latin;mso-fareast-font-family:&lt;br/&gt;Rockwell;mso-fareast-theme-font:minor-latin;mso-hansi-theme-font:minor-latin;&lt;br/&gt;mso-bidi-font-family:Arial;mso-bidi-theme-font:minor-bidi;mso-ansi-language:&lt;br/&gt;EN-US;mso-fareast-language:EN-US;mso-bidi-language:AR-SA&quot;&gt;description&amp;nbsp;&lt;/span&gt;" style="shape=partialRectangle;html=1;whiteSpace=wrap;connectable=0;strokeColor=inherit;overflow=hidden;fillColor=none;top=0;left=0;bottom=0;right=0;pointerEvents=1;fontSize=16;" parent="X7baBOl6zEnkR3U6Garj-166" vertex="1">
          <mxGeometry x="180" width="90" height="40" as="geometry">
            <mxRectangle width="90" height="40" as="alternateBounds" />
          </mxGeometry>
        </mxCell>
        <mxCell id="X7baBOl6zEnkR3U6Garj-170" value="&lt;font color=&quot;#121212&quot;&gt;&lt;span style=&quot;font-size: 13.3333px; background-color: rgb(211, 213, 214);&quot;&gt;price&lt;/span&gt;&lt;/font&gt;" style="shape=partialRectangle;html=1;whiteSpace=wrap;connectable=0;strokeColor=inherit;overflow=hidden;fillColor=none;top=0;left=0;bottom=0;right=0;pointerEvents=1;fontSize=16;" parent="X7baBOl6zEnkR3U6Garj-166" vertex="1">
          <mxGeometry x="270" width="110" height="40" as="geometry">
            <mxRectangle width="110" height="40" as="alternateBounds" />
          </mxGeometry>
        </mxCell>
        <mxCell id="X7baBOl6zEnkR3U6Garj-171" value="&lt;u style=&quot;font-size: 14.6667px;&quot;&gt;name_menu&lt;/u&gt;" style="shape=partialRectangle;html=1;whiteSpace=wrap;connectable=0;strokeColor=inherit;overflow=hidden;fillColor=none;top=0;left=0;bottom=0;right=0;pointerEvents=1;fontSize=16;" parent="X7baBOl6zEnkR3U6Garj-166" vertex="1">
          <mxGeometry x="380" width="80" height="40" as="geometry">
            <mxRectangle width="80" height="40" as="alternateBounds" />
          </mxGeometry>
        </mxCell>
        <mxCell id="X7baBOl6zEnkR3U6Garj-173" value="&lt;b&gt;&lt;span style=&quot;font-size: 10pt; line-height: 107%;&quot;&gt;Dishes&lt;/span&gt;&lt;/b&gt;" style="text;strokeColor=none;fillColor=none;html=1;fontSize=16;fontStyle=1;verticalAlign=middle;align=center;fontFamily=Helvetica;fontColor=#00FF00;" parent="1" vertex="1">
          <mxGeometry x="860" y="310" width="100" height="40" as="geometry" />
        </mxCell>
        <mxCell id="X7baBOl6zEnkR3U6Garj-179" value="&lt;b&gt;&lt;span style=&quot;font-size: 11pt; line-height: 107%;&quot;&gt;Menu&lt;/span&gt;&lt;/b&gt;" style="text;strokeColor=none;fillColor=none;html=1;fontSize=16;fontStyle=1;verticalAlign=middle;align=center;fontFamily=Helvetica;fontColor=#00FF00;" parent="1" vertex="1">
          <mxGeometry x="890" y="40" width="100" height="40" as="geometry" />
        </mxCell>
        <mxCell id="X7baBOl6zEnkR3U6Garj-180" value="" style="shape=table;startSize=0;container=1;collapsible=0;childLayout=tableLayout;fontSize=16;" parent="1" vertex="1">
          <mxGeometry x="950" y="190" width="314" height="40" as="geometry" />
        </mxCell>
        <mxCell id="X7baBOl6zEnkR3U6Garj-181" value="" style="shape=tableRow;horizontal=0;startSize=0;swimlaneHead=0;swimlaneBody=0;strokeColor=inherit;top=0;left=0;bottom=0;right=0;collapsible=0;dropTarget=0;fillColor=none;points=[[0,0.5],[1,0.5]];portConstraint=eastwest;fontSize=16;" parent="X7baBOl6zEnkR3U6Garj-180" vertex="1">
          <mxGeometry width="314" height="40" as="geometry" />
        </mxCell>
        <mxCell id="X7baBOl6zEnkR3U6Garj-182" value="&lt;span style=&quot;font-size:11.0pt;line-height:107%;&lt;br/&gt;font-family:&amp;quot;Rockwell&amp;quot;,serif;mso-ascii-theme-font:minor-latin;mso-fareast-font-family:&lt;br/&gt;Rockwell;mso-fareast-theme-font:minor-latin;mso-hansi-theme-font:minor-latin;&lt;br/&gt;mso-bidi-font-family:Arial;mso-bidi-theme-font:minor-bidi;mso-ansi-language:&lt;br/&gt;EN-US;mso-fareast-language:EN-US;mso-bidi-language:AR-SA&quot;&gt;tables_id&lt;/span&gt;" style="shape=partialRectangle;html=1;whiteSpace=wrap;connectable=0;strokeColor=inherit;overflow=hidden;fillColor=none;top=0;left=0;bottom=0;right=0;pointerEvents=1;fontSize=16;" parent="X7baBOl6zEnkR3U6Garj-181" vertex="1">
          <mxGeometry width="63" height="40" as="geometry">
            <mxRectangle width="63" height="40" as="alternateBounds" />
          </mxGeometry>
        </mxCell>
        <mxCell id="X7baBOl6zEnkR3U6Garj-183" value="&lt;span style=&quot;font-size:11.0pt;line-height:107%;&lt;br/&gt;font-family:&amp;quot;Rockwell&amp;quot;,serif;mso-ascii-theme-font:minor-latin;mso-fareast-font-family:&lt;br/&gt;Rockwell;mso-fareast-theme-font:minor-latin;mso-hansi-theme-font:minor-latin;&lt;br/&gt;mso-bidi-font-family:Arial;mso-bidi-theme-font:minor-bidi;mso-ansi-language:&lt;br/&gt;EN-US;mso-fareast-language:EN-US;mso-bidi-language:AR-SA&quot;&gt;number_table&lt;/span&gt;" style="shape=partialRectangle;html=1;whiteSpace=wrap;connectable=0;strokeColor=inherit;overflow=hidden;fillColor=none;top=0;left=0;bottom=0;right=0;pointerEvents=1;fontSize=16;" parent="X7baBOl6zEnkR3U6Garj-181" vertex="1">
          <mxGeometry x="63" width="107" height="40" as="geometry">
            <mxRectangle width="107" height="40" as="alternateBounds" />
          </mxGeometry>
        </mxCell>
        <mxCell id="X7baBOl6zEnkR3U6Garj-184" value="&lt;span style=&quot;font-size:11.0pt;line-height:107%;&lt;br/&gt;font-family:&amp;quot;Rockwell&amp;quot;,serif;mso-ascii-theme-font:minor-latin;mso-fareast-font-family:&lt;br/&gt;Rockwell;mso-fareast-theme-font:minor-latin;mso-hansi-theme-font:minor-latin;&lt;br/&gt;mso-bidi-font-family:Arial;mso-bidi-theme-font:minor-bidi;mso-ansi-language:&lt;br/&gt;EN-US;mso-fareast-language:EN-US;mso-bidi-language:AR-SA&quot;&gt;capacity&amp;nbsp;&lt;/span&gt;" style="shape=partialRectangle;html=1;whiteSpace=wrap;connectable=0;strokeColor=inherit;overflow=hidden;fillColor=none;top=0;left=0;bottom=0;right=0;pointerEvents=1;fontSize=16;" parent="X7baBOl6zEnkR3U6Garj-181" vertex="1">
          <mxGeometry x="170" width="60" height="40" as="geometry">
            <mxRectangle width="60" height="40" as="alternateBounds" />
          </mxGeometry>
        </mxCell>
        <mxCell id="X7baBOl6zEnkR3U6Garj-186" value="&lt;span style=&quot;font-size:11.0pt;line-height:107%;&lt;br/&gt;font-family:&amp;quot;Rockwell&amp;quot;,serif;mso-ascii-theme-font:minor-latin;mso-fareast-font-family:&lt;br/&gt;Rockwell;mso-fareast-theme-font:minor-latin;mso-hansi-theme-font:minor-latin;&lt;br/&gt;mso-bidi-font-family:Arial;mso-bidi-theme-font:minor-bidi;mso-ansi-language:&lt;br/&gt;EN-US;mso-fareast-language:EN-US;mso-bidi-language:AR-SA&quot;&gt;status&amp;nbsp;&lt;/span&gt;" style="shape=partialRectangle;html=1;whiteSpace=wrap;connectable=0;strokeColor=inherit;overflow=hidden;fillColor=none;top=0;left=0;bottom=0;right=0;pointerEvents=1;fontSize=16;" parent="X7baBOl6zEnkR3U6Garj-181" vertex="1">
          <mxGeometry x="230" width="84" height="40" as="geometry">
            <mxRectangle width="84" height="40" as="alternateBounds" />
          </mxGeometry>
        </mxCell>
        <mxCell id="X7baBOl6zEnkR3U6Garj-185" value="&lt;b&gt;&lt;span style=&quot;font-size: 11pt; line-height: 107%;&quot;&gt;Tables&lt;/span&gt;&lt;/b&gt;" style="text;strokeColor=none;fillColor=none;html=1;fontSize=16;fontStyle=1;verticalAlign=middle;align=center;fontFamily=Helvetica;fontColor=#00FF00;" parent="1" vertex="1">
          <mxGeometry x="890" y="160" width="100" height="40" as="geometry" />
        </mxCell>
        <mxCell id="X7baBOl6zEnkR3U6Garj-187" value="" style="shape=table;startSize=0;container=1;collapsible=0;childLayout=tableLayout;fontSize=16;" parent="1" vertex="1">
          <mxGeometry x="186" y="670" width="314" height="40" as="geometry" />
        </mxCell>
        <mxCell id="X7baBOl6zEnkR3U6Garj-188" value="" style="shape=tableRow;horizontal=0;startSize=0;swimlaneHead=0;swimlaneBody=0;strokeColor=inherit;top=0;left=0;bottom=0;right=0;collapsible=0;dropTarget=0;fillColor=none;points=[[0,0.5],[1,0.5]];portConstraint=eastwest;fontSize=16;" parent="X7baBOl6zEnkR3U6Garj-187" vertex="1">
          <mxGeometry width="314" height="40" as="geometry" />
        </mxCell>
        <mxCell id="X7baBOl6zEnkR3U6Garj-189" value="&lt;span style=&quot;font-size:11.0pt;line-height:107%;&lt;br/&gt;font-family:&amp;quot;Rockwell&amp;quot;,serif;mso-ascii-theme-font:minor-latin;mso-fareast-font-family:&lt;br/&gt;Rockwell;mso-fareast-theme-font:minor-latin;mso-hansi-theme-font:minor-latin;&lt;br/&gt;mso-bidi-font-family:Arial;mso-bidi-theme-font:minor-bidi;mso-ansi-language:&lt;br/&gt;EN-US;mso-fareast-language:EN-US;mso-bidi-language:AR-SA&quot;&gt;bills_id&lt;/span&gt;" style="shape=partialRectangle;html=1;whiteSpace=wrap;connectable=0;strokeColor=inherit;overflow=hidden;fillColor=none;top=0;left=0;bottom=0;right=0;pointerEvents=1;fontSize=16;" parent="X7baBOl6zEnkR3U6Garj-188" vertex="1">
          <mxGeometry width="63" height="40" as="geometry">
            <mxRectangle width="63" height="40" as="alternateBounds" />
          </mxGeometry>
        </mxCell>
        <mxCell id="X7baBOl6zEnkR3U6Garj-190" value="&lt;span style=&quot;font-size:11.0pt;line-height:107%;&lt;br/&gt;font-family:&amp;quot;Rockwell&amp;quot;,serif;mso-ascii-theme-font:minor-latin;mso-fareast-font-family:&lt;br/&gt;Rockwell;mso-fareast-theme-font:minor-latin;mso-hansi-theme-font:minor-latin;&lt;br/&gt;mso-bidi-font-family:Arial;mso-bidi-theme-font:minor-bidi;mso-ansi-language:&lt;br/&gt;EN-US;mso-fareast-language:EN-US;mso-bidi-language:AR-SA&quot;&gt;number&amp;nbsp;&lt;/span&gt;" style="shape=partialRectangle;html=1;whiteSpace=wrap;connectable=0;strokeColor=inherit;overflow=hidden;fillColor=none;top=0;left=0;bottom=0;right=0;pointerEvents=1;fontSize=16;" parent="X7baBOl6zEnkR3U6Garj-188" vertex="1">
          <mxGeometry x="63" width="83" height="40" as="geometry">
            <mxRectangle width="83" height="40" as="alternateBounds" />
          </mxGeometry>
        </mxCell>
        <mxCell id="X7baBOl6zEnkR3U6Garj-191" value="&lt;span style=&quot;font-size:11.0pt;line-height:107%;&lt;br/&gt;font-family:&amp;quot;Rockwell&amp;quot;,serif;mso-ascii-theme-font:minor-latin;mso-fareast-font-family:&lt;br/&gt;Rockwell;mso-fareast-theme-font:minor-latin;mso-hansi-theme-font:minor-latin;&lt;br/&gt;mso-bidi-font-family:Arial;mso-bidi-theme-font:minor-bidi;mso-ansi-language:&lt;br/&gt;EN-US;mso-fareast-language:EN-US;mso-bidi-language:AR-SA&quot;&gt;calculation&amp;nbsp;&lt;/span&gt;" style="shape=partialRectangle;html=1;whiteSpace=wrap;connectable=0;strokeColor=inherit;overflow=hidden;fillColor=none;top=0;left=0;bottom=0;right=0;pointerEvents=1;fontSize=16;" parent="X7baBOl6zEnkR3U6Garj-188" vertex="1">
          <mxGeometry x="146" width="84" height="40" as="geometry">
            <mxRectangle width="84" height="40" as="alternateBounds" />
          </mxGeometry>
        </mxCell>
        <mxCell id="X7baBOl6zEnkR3U6Garj-192" value="&lt;span style=&quot;font-size:11.0pt;line-height:107%;&lt;br/&gt;font-family:&amp;quot;Rockwell&amp;quot;,serif;mso-ascii-theme-font:minor-latin;mso-fareast-font-family:&lt;br/&gt;Rockwell;mso-fareast-theme-font:minor-latin;mso-hansi-theme-font:minor-latin;&lt;br/&gt;mso-bidi-font-family:Arial;mso-bidi-theme-font:minor-bidi;mso-ansi-language:&lt;br/&gt;EN-US;mso-fareast-language:EN-US;mso-bidi-language:AR-SA&quot;&gt;status&amp;nbsp;&lt;/span&gt;" style="shape=partialRectangle;html=1;whiteSpace=wrap;connectable=0;strokeColor=inherit;overflow=hidden;fillColor=none;top=0;left=0;bottom=0;right=0;pointerEvents=1;fontSize=16;" parent="X7baBOl6zEnkR3U6Garj-188" vertex="1">
          <mxGeometry x="230" width="84" height="40" as="geometry">
            <mxRectangle width="84" height="40" as="alternateBounds" />
          </mxGeometry>
        </mxCell>
        <mxCell id="X7baBOl6zEnkR3U6Garj-193" value="&lt;b&gt;&lt;span style=&quot;font-size: 11pt; line-height: 107%;&quot;&gt;Invoices&lt;/span&gt;&lt;/b&gt;" style="text;strokeColor=none;fillColor=none;html=1;fontSize=16;fontStyle=1;verticalAlign=middle;align=center;fontFamily=Helvetica;fontColor=#00FF00;" parent="1" vertex="1">
          <mxGeometry x="165" y="630" width="100" height="40" as="geometry" />
        </mxCell>
        <mxCell id="Pj5b9IcGemmlTNtjO2-E-1" value="" style="shape=tableRow;horizontal=0;startSize=0;swimlaneHead=0;swimlaneBody=0;strokeColor=inherit;top=0;left=0;bottom=0;right=0;collapsible=0;dropTarget=0;fillColor=none;points=[[0,0.5],[1,0.5]];portConstraint=eastwest;fontSize=16;" parent="1" vertex="1">
          <mxGeometry x="178" y="400" width="60" height="40" as="geometry" />
        </mxCell>
        <mxCell id="Pj5b9IcGemmlTNtjO2-E-3" value="" style="shape=table;startSize=0;container=1;collapsible=0;childLayout=tableLayout;fontSize=16;" parent="1" vertex="1">
          <mxGeometry x="165" y="260" width="85" height="40" as="geometry" />
        </mxCell>
        <mxCell id="Pj5b9IcGemmlTNtjO2-E-4" value="" style="shape=tableRow;horizontal=0;startSize=0;swimlaneHead=0;swimlaneBody=0;strokeColor=inherit;top=0;left=0;bottom=0;right=0;collapsible=0;dropTarget=0;fillColor=none;points=[[0,0.5],[1,0.5]];portConstraint=eastwest;fontSize=16;" parent="Pj5b9IcGemmlTNtjO2-E-3" vertex="1">
          <mxGeometry width="85" height="40" as="geometry" />
        </mxCell>
        <mxCell id="Pj5b9IcGemmlTNtjO2-E-5" value="&lt;span style=&quot;font-size: 14.6667px;&quot;&gt;last_name&lt;/span&gt;" style="shape=partialRectangle;html=1;whiteSpace=wrap;connectable=0;strokeColor=inherit;overflow=hidden;fillColor=none;top=0;left=0;bottom=0;right=0;pointerEvents=1;fontSize=16;" parent="Pj5b9IcGemmlTNtjO2-E-4" vertex="1">
          <mxGeometry width="85" height="40" as="geometry">
            <mxRectangle width="85" height="40" as="alternateBounds" />
          </mxGeometry>
        </mxCell>
        <mxCell id="Pj5b9IcGemmlTNtjO2-E-25" value="" style="shape=table;startSize=0;container=1;collapsible=0;childLayout=tableLayout;fontSize=16;" parent="1" vertex="1">
          <mxGeometry x="1290" y="620" width="110.00000000000045" height="40" as="geometry" />
        </mxCell>
        <mxCell id="Pj5b9IcGemmlTNtjO2-E-26" value="" style="shape=tableRow;horizontal=0;startSize=0;swimlaneHead=0;swimlaneBody=0;strokeColor=inherit;top=0;left=0;bottom=0;right=0;collapsible=0;dropTarget=0;fillColor=none;points=[[0,0.5],[1,0.5]];portConstraint=eastwest;fontSize=16;" parent="Pj5b9IcGemmlTNtjO2-E-25" vertex="1">
          <mxGeometry width="110.00000000000045" height="40" as="geometry" />
        </mxCell>
        <mxCell id="Pj5b9IcGemmlTNtjO2-E-27" value="&lt;span style=&quot;font-size: 14.6667px;&quot;&gt;ssn&lt;/span&gt;" style="shape=partialRectangle;html=1;whiteSpace=wrap;connectable=0;strokeColor=inherit;overflow=hidden;fillColor=none;top=0;left=0;bottom=0;right=0;pointerEvents=1;fontSize=16;" parent="Pj5b9IcGemmlTNtjO2-E-26" vertex="1">
          <mxGeometry width="110" height="40" as="geometry">
            <mxRectangle width="110" height="40" as="alternateBounds" />
          </mxGeometry>
        </mxCell>
        <mxCell id="Pj5b9IcGemmlTNtjO2-E-59" value="" style="shape=table;startSize=0;container=1;collapsible=0;childLayout=tableLayout;fontSize=16;" parent="1" vertex="1">
          <mxGeometry x="410" y="320" width="110" height="40" as="geometry" />
        </mxCell>
        <mxCell id="Pj5b9IcGemmlTNtjO2-E-60" value="" style="shape=tableRow;horizontal=0;startSize=0;swimlaneHead=0;swimlaneBody=0;strokeColor=inherit;top=0;left=0;bottom=0;right=0;collapsible=0;dropTarget=0;fillColor=none;points=[[0,0.5],[1,0.5]];portConstraint=eastwest;fontSize=16;" parent="Pj5b9IcGemmlTNtjO2-E-59" vertex="1">
          <mxGeometry width="110" height="40" as="geometry" />
        </mxCell>
        <mxCell id="Pj5b9IcGemmlTNtjO2-E-61" value="&lt;u style=&quot;font-size: 14.6667px;&quot;&gt;ssn&lt;/u&gt;" style="shape=partialRectangle;html=1;whiteSpace=wrap;connectable=0;strokeColor=inherit;overflow=hidden;fillColor=none;top=0;left=0;bottom=0;right=0;pointerEvents=1;fontSize=16;" parent="Pj5b9IcGemmlTNtjO2-E-60" vertex="1">
          <mxGeometry width="110" height="40" as="geometry">
            <mxRectangle width="110" height="40" as="alternateBounds" />
          </mxGeometry>
        </mxCell>
        <mxCell id="Pj5b9IcGemmlTNtjO2-E-63" value="" style="shape=table;startSize=0;container=1;collapsible=0;childLayout=tableLayout;fontSize=16;" parent="1" vertex="1">
          <mxGeometry x="516" y="320" width="104" height="40" as="geometry" />
        </mxCell>
        <mxCell id="Pj5b9IcGemmlTNtjO2-E-64" value="" style="shape=tableRow;horizontal=0;startSize=0;swimlaneHead=0;swimlaneBody=0;strokeColor=inherit;top=0;left=0;bottom=0;right=0;collapsible=0;dropTarget=0;fillColor=none;points=[[0,0.5],[1,0.5]];portConstraint=eastwest;fontSize=16;" parent="Pj5b9IcGemmlTNtjO2-E-63" vertex="1">
          <mxGeometry width="104" height="40" as="geometry" />
        </mxCell>
        <mxCell id="Pj5b9IcGemmlTNtjO2-E-65" value="&lt;u style=&quot;font-size: 14.6667px;&quot;&gt;reservation_id&lt;/u&gt;" style="shape=partialRectangle;html=1;whiteSpace=wrap;connectable=0;strokeColor=inherit;overflow=hidden;fillColor=none;top=0;left=0;bottom=0;right=0;pointerEvents=1;fontSize=16;" parent="Pj5b9IcGemmlTNtjO2-E-64" vertex="1">
          <mxGeometry width="104" height="40" as="geometry">
            <mxRectangle width="104" height="40" as="alternateBounds" />
          </mxGeometry>
        </mxCell>
        <mxCell id="Pj5b9IcGemmlTNtjO2-E-78" value="" style="shape=table;startSize=0;container=1;collapsible=0;childLayout=tableLayout;fontSize=16;" parent="1" vertex="1">
          <mxGeometry x="884" y="460" width="96" height="40" as="geometry" />
        </mxCell>
        <mxCell id="Pj5b9IcGemmlTNtjO2-E-79" value="" style="shape=tableRow;horizontal=0;startSize=0;swimlaneHead=0;swimlaneBody=0;strokeColor=inherit;top=0;left=0;bottom=0;right=0;collapsible=0;dropTarget=0;fillColor=none;points=[[0,0.5],[1,0.5]];portConstraint=eastwest;fontSize=16;" parent="Pj5b9IcGemmlTNtjO2-E-78" vertex="1">
          <mxGeometry width="96" height="40" as="geometry" />
        </mxCell>
        <mxCell id="Pj5b9IcGemmlTNtjO2-E-80" value="&lt;u style=&quot;font-size: 14.6667px;&quot;&gt;product_id&lt;/u&gt;" style="shape=partialRectangle;html=1;whiteSpace=wrap;connectable=0;strokeColor=inherit;overflow=hidden;fillColor=none;top=0;left=0;bottom=0;right=0;pointerEvents=1;fontSize=16;" parent="Pj5b9IcGemmlTNtjO2-E-79" vertex="1">
          <mxGeometry width="96" height="40" as="geometry">
            <mxRectangle width="96" height="40" as="alternateBounds" />
          </mxGeometry>
        </mxCell>
        <mxCell id="Pj5b9IcGemmlTNtjO2-E-81" value="" style="shape=table;startSize=0;container=1;collapsible=0;childLayout=tableLayout;fontSize=16;" parent="1" vertex="1">
          <mxGeometry x="980" y="460" width="86" height="40" as="geometry" />
        </mxCell>
        <mxCell id="Pj5b9IcGemmlTNtjO2-E-82" value="" style="shape=tableRow;horizontal=0;startSize=0;swimlaneHead=0;swimlaneBody=0;strokeColor=inherit;top=0;left=0;bottom=0;right=0;collapsible=0;dropTarget=0;fillColor=none;points=[[0,0.5],[1,0.5]];portConstraint=eastwest;fontSize=16;" parent="Pj5b9IcGemmlTNtjO2-E-81" vertex="1">
          <mxGeometry width="86" height="40" as="geometry" />
        </mxCell>
        <mxCell id="Pj5b9IcGemmlTNtjO2-E-83" value="&lt;span style=&quot;font-size: 14.6667px;&quot;&gt;&lt;u&gt;name&lt;/u&gt;&lt;/span&gt;" style="shape=partialRectangle;html=1;whiteSpace=wrap;connectable=0;strokeColor=inherit;overflow=hidden;fillColor=none;top=0;left=0;bottom=0;right=0;pointerEvents=1;fontSize=16;" parent="Pj5b9IcGemmlTNtjO2-E-82" vertex="1">
          <mxGeometry width="86" height="40" as="geometry">
            <mxRectangle width="86" height="40" as="alternateBounds" />
          </mxGeometry>
        </mxCell>
        <mxCell id="D2i0-vQoq76PvNIKB5n_-15" value="&lt;font&gt;&lt;span style=&quot;font-size: 14.6667px;&quot;&gt;manager&lt;/span&gt;&lt;/font&gt;" style="text;strokeColor=none;fillColor=none;html=1;fontSize=24;fontStyle=1;verticalAlign=middle;align=center;fontColor=#00FF00;" parent="1" vertex="1">
          <mxGeometry x="110" y="30" width="100" height="40" as="geometry" />
        </mxCell>
        <mxCell id="HS5GAoDIYZInRsCRhnA4-1" value="" style="shape=table;startSize=0;container=1;collapsible=0;childLayout=tableLayout;fontSize=16;" parent="1" vertex="1">
          <mxGeometry x="200" y="80" width="60" height="40" as="geometry" />
        </mxCell>
        <mxCell id="HS5GAoDIYZInRsCRhnA4-2" value="" style="shape=tableRow;horizontal=0;startSize=0;swimlaneHead=0;swimlaneBody=0;strokeColor=inherit;top=0;left=0;bottom=0;right=0;collapsible=0;dropTarget=0;fillColor=none;points=[[0,0.5],[1,0.5]];portConstraint=eastwest;fontSize=16;" parent="HS5GAoDIYZInRsCRhnA4-1" vertex="1">
          <mxGeometry width="60" height="40" as="geometry" />
        </mxCell>
        <mxCell id="HS5GAoDIYZInRsCRhnA4-3" value="&lt;span style=&quot;font-size: 14.6667px;&quot;&gt;&lt;u&gt;ssn&lt;/u&gt;&lt;/span&gt;" style="shape=partialRectangle;html=1;whiteSpace=wrap;connectable=0;strokeColor=inherit;overflow=hidden;fillColor=none;top=0;left=0;bottom=0;right=0;pointerEvents=1;fontSize=16;" parent="HS5GAoDIYZInRsCRhnA4-2" vertex="1">
          <mxGeometry width="60" height="40" as="geometry">
            <mxRectangle width="60" height="40" as="alternateBounds" />
          </mxGeometry>
        </mxCell>
        <mxCell id="HS5GAoDIYZInRsCRhnA4-4" value="" style="shape=table;startSize=0;container=1;collapsible=0;childLayout=tableLayout;fontSize=16;" parent="1" vertex="1">
          <mxGeometry x="257" y="80" width="96" height="40" as="geometry" />
        </mxCell>
        <mxCell id="HS5GAoDIYZInRsCRhnA4-5" value="" style="shape=tableRow;horizontal=0;startSize=0;swimlaneHead=0;swimlaneBody=0;strokeColor=inherit;top=0;left=0;bottom=0;right=0;collapsible=0;dropTarget=0;fillColor=none;points=[[0,0.5],[1,0.5]];portConstraint=eastwest;fontSize=16;" parent="HS5GAoDIYZInRsCRhnA4-4" vertex="1">
          <mxGeometry width="96" height="40" as="geometry" />
        </mxCell>
        <mxCell id="HS5GAoDIYZInRsCRhnA4-6" value="&lt;span style=&quot;font-size: 14.6667px;&quot;&gt;last_name&lt;/span&gt;" style="shape=partialRectangle;html=1;whiteSpace=wrap;connectable=0;strokeColor=inherit;overflow=hidden;fillColor=none;top=0;left=0;bottom=0;right=0;pointerEvents=1;fontSize=16;" parent="HS5GAoDIYZInRsCRhnA4-5" vertex="1">
          <mxGeometry width="96" height="40" as="geometry">
            <mxRectangle width="96" height="40" as="alternateBounds" />
          </mxGeometry>
        </mxCell>
        <mxCell id="HS5GAoDIYZInRsCRhnA4-7" value="" style="shape=table;startSize=0;container=1;collapsible=0;childLayout=tableLayout;fontSize=16;" parent="1" vertex="1">
          <mxGeometry x="350" y="80" width="90" height="40" as="geometry" />
        </mxCell>
        <mxCell id="HS5GAoDIYZInRsCRhnA4-8" value="" style="shape=tableRow;horizontal=0;startSize=0;swimlaneHead=0;swimlaneBody=0;strokeColor=inherit;top=0;left=0;bottom=0;right=0;collapsible=0;dropTarget=0;fillColor=none;points=[[0,0.5],[1,0.5]];portConstraint=eastwest;fontSize=16;" parent="HS5GAoDIYZInRsCRhnA4-7" vertex="1">
          <mxGeometry width="90" height="40" as="geometry" />
        </mxCell>
        <mxCell id="HS5GAoDIYZInRsCRhnA4-9" value="&lt;span style=&quot;font-size: 14.6667px;&quot;&gt;first_name&lt;/span&gt;" style="shape=partialRectangle;html=1;whiteSpace=wrap;connectable=0;strokeColor=inherit;overflow=hidden;fillColor=none;top=0;left=0;bottom=0;right=0;pointerEvents=1;fontSize=16;" parent="HS5GAoDIYZInRsCRhnA4-8" vertex="1">
          <mxGeometry width="90" height="40" as="geometry">
            <mxRectangle width="90" height="40" as="alternateBounds" />
          </mxGeometry>
        </mxCell>
        <mxCell id="HS5GAoDIYZInRsCRhnA4-10" value="" style="shape=table;startSize=0;container=1;collapsible=0;childLayout=tableLayout;fontSize=16;" parent="1" vertex="1">
          <mxGeometry y="170" width="60" height="40" as="geometry" />
        </mxCell>
        <mxCell id="HS5GAoDIYZInRsCRhnA4-11" value="" style="shape=tableRow;horizontal=0;startSize=0;swimlaneHead=0;swimlaneBody=0;strokeColor=inherit;top=0;left=0;bottom=0;right=0;collapsible=0;dropTarget=0;fillColor=none;points=[[0,0.5],[1,0.5]];portConstraint=eastwest;fontSize=16;" parent="HS5GAoDIYZInRsCRhnA4-10" vertex="1">
          <mxGeometry width="60" height="40" as="geometry" />
        </mxCell>
        <mxCell id="HS5GAoDIYZInRsCRhnA4-12" value="&lt;span style=&quot;font-size: 14.6667px;&quot;&gt;&lt;u&gt;ssn&lt;/u&gt;&lt;/span&gt;" style="shape=partialRectangle;html=1;whiteSpace=wrap;connectable=0;strokeColor=inherit;overflow=hidden;fillColor=none;top=0;left=0;bottom=0;right=0;pointerEvents=1;fontSize=16;" parent="HS5GAoDIYZInRsCRhnA4-11" vertex="1">
          <mxGeometry width="60" height="40" as="geometry">
            <mxRectangle width="60" height="40" as="alternateBounds" />
          </mxGeometry>
        </mxCell>
        <mxCell id="HS5GAoDIYZInRsCRhnA4-16" value="" style="shape=table;startSize=0;container=1;collapsible=0;childLayout=tableLayout;fontSize=16;" parent="1" vertex="1">
          <mxGeometry x="60" y="170" width="90" height="40" as="geometry" />
        </mxCell>
        <mxCell id="HS5GAoDIYZInRsCRhnA4-17" value="" style="shape=tableRow;horizontal=0;startSize=0;swimlaneHead=0;swimlaneBody=0;strokeColor=inherit;top=0;left=0;bottom=0;right=0;collapsible=0;dropTarget=0;fillColor=none;points=[[0,0.5],[1,0.5]];portConstraint=eastwest;fontSize=16;" parent="HS5GAoDIYZInRsCRhnA4-16" vertex="1">
          <mxGeometry width="90" height="40" as="geometry" />
        </mxCell>
        <mxCell id="HS5GAoDIYZInRsCRhnA4-18" value="&lt;span style=&quot;font-size: 14.6667px;&quot;&gt;last_name&lt;/span&gt;" style="shape=partialRectangle;html=1;whiteSpace=wrap;connectable=0;strokeColor=inherit;overflow=hidden;fillColor=none;top=0;left=0;bottom=0;right=0;pointerEvents=1;fontSize=16;" parent="HS5GAoDIYZInRsCRhnA4-17" vertex="1">
          <mxGeometry width="90" height="40" as="geometry">
            <mxRectangle width="90" height="40" as="alternateBounds" />
          </mxGeometry>
        </mxCell>
        <mxCell id="HS5GAoDIYZInRsCRhnA4-43" value="" style="shape=table;startSize=0;container=1;collapsible=0;childLayout=tableLayout;fontSize=16;" parent="1" vertex="1">
          <mxGeometry x="5" y="260" width="60" height="40" as="geometry" />
        </mxCell>
        <mxCell id="HS5GAoDIYZInRsCRhnA4-44" value="" style="shape=tableRow;horizontal=0;startSize=0;swimlaneHead=0;swimlaneBody=0;strokeColor=inherit;top=0;left=0;bottom=0;right=0;collapsible=0;dropTarget=0;fillColor=none;points=[[0,0.5],[1,0.5]];portConstraint=eastwest;fontSize=16;" parent="HS5GAoDIYZInRsCRhnA4-43" vertex="1">
          <mxGeometry width="60" height="40" as="geometry" />
        </mxCell>
        <mxCell id="HS5GAoDIYZInRsCRhnA4-45" value="&lt;span style=&quot;font-size: 14.6667px;&quot;&gt;&lt;u&gt;ssn&lt;/u&gt;&lt;/span&gt;" style="shape=partialRectangle;html=1;whiteSpace=wrap;connectable=0;strokeColor=inherit;overflow=hidden;fillColor=none;top=0;left=0;bottom=0;right=0;pointerEvents=1;fontSize=16;" parent="HS5GAoDIYZInRsCRhnA4-44" vertex="1">
          <mxGeometry width="60" height="40" as="geometry">
            <mxRectangle width="60" height="40" as="alternateBounds" />
          </mxGeometry>
        </mxCell>
        <mxCell id="HS5GAoDIYZInRsCRhnA4-46" value="" style="shape=table;startSize=0;container=1;collapsible=0;childLayout=tableLayout;fontSize=16;" parent="1" vertex="1">
          <mxGeometry x="250" y="260" width="103" height="40" as="geometry" />
        </mxCell>
        <mxCell id="HS5GAoDIYZInRsCRhnA4-47" value="" style="shape=tableRow;horizontal=0;startSize=0;swimlaneHead=0;swimlaneBody=0;strokeColor=inherit;top=0;left=0;bottom=0;right=0;collapsible=0;dropTarget=0;fillColor=none;points=[[0,0.5],[1,0.5]];portConstraint=eastwest;fontSize=16;" parent="HS5GAoDIYZInRsCRhnA4-46" vertex="1">
          <mxGeometry width="103" height="40" as="geometry" />
        </mxCell>
        <mxCell id="HS5GAoDIYZInRsCRhnA4-48" value="&lt;span style=&quot;font-size: 14.6667px;&quot;&gt;phone_number&lt;/span&gt;" style="shape=partialRectangle;html=1;whiteSpace=wrap;connectable=0;strokeColor=inherit;overflow=hidden;fillColor=none;top=0;left=0;bottom=0;right=0;pointerEvents=1;fontSize=16;" parent="HS5GAoDIYZInRsCRhnA4-47" vertex="1">
          <mxGeometry width="103" height="40" as="geometry">
            <mxRectangle width="103" height="40" as="alternateBounds" />
          </mxGeometry>
        </mxCell>
        <mxCell id="HS5GAoDIYZInRsCRhnA4-52" value="" style="shape=table;startSize=0;container=1;collapsible=0;childLayout=tableLayout;fontSize=16;" parent="1" vertex="1">
          <mxGeometry x="1264" y="190" width="110" height="40" as="geometry" />
        </mxCell>
        <mxCell id="HS5GAoDIYZInRsCRhnA4-53" value="" style="shape=tableRow;horizontal=0;startSize=0;swimlaneHead=0;swimlaneBody=0;strokeColor=inherit;top=0;left=0;bottom=0;right=0;collapsible=0;dropTarget=0;fillColor=none;points=[[0,0.5],[1,0.5]];portConstraint=eastwest;fontSize=16;" parent="HS5GAoDIYZInRsCRhnA4-52" vertex="1">
          <mxGeometry width="110" height="40" as="geometry" />
        </mxCell>
        <mxCell id="HS5GAoDIYZInRsCRhnA4-54" value="&lt;span style=&quot;font-size: 14.6667px;&quot;&gt;reservation_id&lt;/span&gt;" style="shape=partialRectangle;html=1;whiteSpace=wrap;connectable=0;strokeColor=inherit;overflow=hidden;fillColor=none;top=0;left=0;bottom=0;right=0;pointerEvents=1;fontSize=16;" parent="HS5GAoDIYZInRsCRhnA4-53" vertex="1">
          <mxGeometry width="110" height="40" as="geometry">
            <mxRectangle width="110" height="40" as="alternateBounds" />
          </mxGeometry>
        </mxCell>
        <mxCell id="HS5GAoDIYZInRsCRhnA4-55" style="edgeStyle=orthogonalEdgeStyle;rounded=0;orthogonalLoop=1;jettySize=auto;html=1;fontColor=#FF0000;strokeColor=light-dark(#000000,#FF0000);exitX=0.5;exitY=1.025;exitDx=0;exitDy=0;exitPerimeter=0;" parent="1" source="HS5GAoDIYZInRsCRhnA4-53" edge="1">
          <mxGeometry relative="1" as="geometry">
            <mxPoint x="50" y="460" as="targetPoint" />
            <mxPoint x="1350" y="230" as="sourcePoint" />
            <Array as="points">
              <mxPoint x="1319" y="260" />
              <mxPoint x="750" y="260" />
              <mxPoint x="750" y="420" />
              <mxPoint x="50" y="420" />
            </Array>
          </mxGeometry>
        </mxCell>
        <mxCell id="HS5GAoDIYZInRsCRhnA4-85" value="" style="shape=table;startSize=0;container=1;collapsible=0;childLayout=tableLayout;fontSize=16;" parent="1" vertex="1">
          <mxGeometry x="760" y="460" width="61" height="40" as="geometry" />
        </mxCell>
        <mxCell id="HS5GAoDIYZInRsCRhnA4-86" value="" style="shape=tableRow;horizontal=0;startSize=0;swimlaneHead=0;swimlaneBody=0;strokeColor=inherit;top=0;left=0;bottom=0;right=0;collapsible=0;dropTarget=0;fillColor=none;points=[[0,0.5],[1,0.5]];portConstraint=eastwest;fontSize=16;" parent="HS5GAoDIYZInRsCRhnA4-85" vertex="1">
          <mxGeometry width="61" height="40" as="geometry" />
        </mxCell>
        <mxCell id="HS5GAoDIYZInRsCRhnA4-87" value="&lt;span style=&quot;font-size: 14.6667px;&quot;&gt;ssn&lt;/span&gt;" style="shape=partialRectangle;html=1;whiteSpace=wrap;connectable=0;strokeColor=inherit;overflow=hidden;fillColor=none;top=0;left=0;bottom=0;right=0;pointerEvents=1;fontSize=16;" parent="HS5GAoDIYZInRsCRhnA4-86" vertex="1">
          <mxGeometry width="61" height="40" as="geometry">
            <mxRectangle width="61" height="40" as="alternateBounds" />
          </mxGeometry>
        </mxCell>
        <mxCell id="HS5GAoDIYZInRsCRhnA4-89" value="" style="shape=table;startSize=0;container=1;collapsible=0;childLayout=tableLayout;fontSize=16;" parent="1" vertex="1">
          <mxGeometry x="1200" y="500" width="70" height="40" as="geometry" />
        </mxCell>
        <mxCell id="HS5GAoDIYZInRsCRhnA4-90" value="" style="shape=tableRow;horizontal=0;startSize=0;swimlaneHead=0;swimlaneBody=0;strokeColor=inherit;top=0;left=0;bottom=0;right=0;collapsible=0;dropTarget=0;fillColor=none;points=[[0,0.5],[1,0.5]];portConstraint=eastwest;fontSize=16;" parent="HS5GAoDIYZInRsCRhnA4-89" vertex="1">
          <mxGeometry width="70" height="40" as="geometry" />
        </mxCell>
        <mxCell id="HS5GAoDIYZInRsCRhnA4-91" value="&lt;span style=&quot;font-size: 14.6667px;&quot;&gt;&lt;u&gt;tables_Id&lt;/u&gt;&lt;/span&gt;" style="shape=partialRectangle;html=1;whiteSpace=wrap;connectable=0;strokeColor=inherit;overflow=hidden;fillColor=none;top=0;left=0;bottom=0;right=0;pointerEvents=1;fontSize=16;" parent="HS5GAoDIYZInRsCRhnA4-90" vertex="1">
          <mxGeometry width="70" height="40" as="geometry">
            <mxRectangle width="70" height="40" as="alternateBounds" />
          </mxGeometry>
        </mxCell>
        <mxCell id="HS5GAoDIYZInRsCRhnA4-92" value="" style="shape=table;startSize=0;container=1;collapsible=0;childLayout=tableLayout;fontSize=16;" parent="1" vertex="1">
          <mxGeometry x="1270" y="500" width="90" height="40" as="geometry" />
        </mxCell>
        <mxCell id="HS5GAoDIYZInRsCRhnA4-93" value="" style="shape=tableRow;horizontal=0;startSize=0;swimlaneHead=0;swimlaneBody=0;strokeColor=inherit;top=0;left=0;bottom=0;right=0;collapsible=0;dropTarget=0;fillColor=none;points=[[0,0.5],[1,0.5]];portConstraint=eastwest;fontSize=16;" parent="HS5GAoDIYZInRsCRhnA4-92" vertex="1">
          <mxGeometry width="90" height="40" as="geometry" />
        </mxCell>
        <mxCell id="HS5GAoDIYZInRsCRhnA4-94" value="&lt;span style=&quot;font-size: 14.6667px;&quot;&gt;&lt;u&gt;order_Id&lt;/u&gt;&lt;/span&gt;" style="shape=partialRectangle;html=1;whiteSpace=wrap;connectable=0;strokeColor=inherit;overflow=hidden;fillColor=none;top=0;left=0;bottom=0;right=0;pointerEvents=1;fontSize=16;" parent="HS5GAoDIYZInRsCRhnA4-93" vertex="1">
          <mxGeometry width="90" height="40" as="geometry">
            <mxRectangle width="90" height="40" as="alternateBounds" />
          </mxGeometry>
        </mxCell>
        <mxCell id="HS5GAoDIYZInRsCRhnA4-97" value="&lt;b&gt;&lt;span style=&quot;font-size: 11pt; line-height: 107%;&quot;&gt;&lt;font color=&quot;#00ffff&quot;&gt;Serves&lt;/font&gt;&lt;/span&gt;&lt;/b&gt;" style="text;strokeColor=none;fillColor=none;html=1;fontSize=16;fontStyle=1;verticalAlign=middle;align=center;fontFamily=Helvetica;fontColor=#00FF00;" parent="1" vertex="1">
          <mxGeometry x="1140" y="460" width="100" height="40" as="geometry" />
        </mxCell>
        <mxCell id="HS5GAoDIYZInRsCRhnA4-116" value="" style="shape=table;startSize=0;container=1;collapsible=0;childLayout=tableLayout;fontSize=16;fontStyle=0" parent="1" vertex="1">
          <mxGeometry x="500" y="670" width="60" height="40" as="geometry" />
        </mxCell>
        <mxCell id="HS5GAoDIYZInRsCRhnA4-117" value="" style="shape=tableRow;horizontal=0;startSize=0;swimlaneHead=0;swimlaneBody=0;strokeColor=inherit;top=0;left=0;bottom=0;right=0;collapsible=0;dropTarget=0;fillColor=none;points=[[0,0.5],[1,0.5]];portConstraint=eastwest;fontSize=16;" parent="HS5GAoDIYZInRsCRhnA4-116" vertex="1">
          <mxGeometry width="60" height="40" as="geometry" />
        </mxCell>
        <mxCell id="HS5GAoDIYZInRsCRhnA4-118" value="&lt;span style=&quot;font-size: 14.6667px;&quot;&gt;order_id&lt;/span&gt;" style="shape=partialRectangle;html=1;whiteSpace=wrap;connectable=0;strokeColor=inherit;overflow=hidden;fillColor=none;top=0;left=0;bottom=0;right=0;pointerEvents=1;fontSize=16;" parent="HS5GAoDIYZInRsCRhnA4-117" vertex="1">
          <mxGeometry width="60" height="40" as="geometry">
            <mxRectangle width="60" height="40" as="alternateBounds" />
          </mxGeometry>
        </mxCell>
        <mxCell id="HS5GAoDIYZInRsCRhnA4-120" style="edgeStyle=orthogonalEdgeStyle;rounded=0;orthogonalLoop=1;jettySize=auto;html=1;entryX=0.902;entryY=0.025;entryDx=0;entryDy=0;entryPerimeter=0;strokeColor=light-dark(#000000,#FF0000);" parent="1" target="X7baBOl6zEnkR3U6Garj-166" edge="1">
          <mxGeometry relative="1" as="geometry">
            <mxPoint x="990" y="120" as="sourcePoint" />
            <Array as="points">
              <mxPoint x="990" y="150" />
              <mxPoint x="1423" y="150" />
              <mxPoint x="1423" y="330" />
              <mxPoint x="1319" y="330" />
            </Array>
          </mxGeometry>
        </mxCell>
        <mxCell id="HS5GAoDIYZInRsCRhnA4-121" value="" style="shape=table;startSize=0;container=1;collapsible=0;childLayout=tableLayout;fontSize=16;" parent="1" vertex="1">
          <mxGeometry x="690" y="530" width="61" height="40" as="geometry" />
        </mxCell>
        <mxCell id="HS5GAoDIYZInRsCRhnA4-122" value="" style="shape=tableRow;horizontal=0;startSize=0;swimlaneHead=0;swimlaneBody=0;strokeColor=inherit;top=0;left=0;bottom=0;right=0;collapsible=0;dropTarget=0;fillColor=none;points=[[0,0.5],[1,0.5]];portConstraint=eastwest;fontSize=16;" parent="HS5GAoDIYZInRsCRhnA4-121" vertex="1">
          <mxGeometry width="61" height="40" as="geometry" />
        </mxCell>
        <mxCell id="HS5GAoDIYZInRsCRhnA4-123" value="&lt;span style=&quot;font-size: 14.6667px;&quot;&gt;ssn&lt;/span&gt;" style="shape=partialRectangle;html=1;whiteSpace=wrap;connectable=0;strokeColor=inherit;overflow=hidden;fillColor=none;top=0;left=0;bottom=0;right=0;pointerEvents=1;fontSize=16;" parent="HS5GAoDIYZInRsCRhnA4-122" vertex="1">
          <mxGeometry width="61" height="40" as="geometry">
            <mxRectangle width="61" height="40" as="alternateBounds" />
          </mxGeometry>
        </mxCell>
        <mxCell id="HS5GAoDIYZInRsCRhnA4-124" style="edgeStyle=orthogonalEdgeStyle;rounded=0;orthogonalLoop=1;jettySize=auto;html=1;strokeColor=light-dark(#000000,#FF0000);entryX=0.267;entryY=1.05;entryDx=0;entryDy=0;entryPerimeter=0;" parent="1" source="HS5GAoDIYZInRsCRhnA4-122" target="HS5GAoDIYZInRsCRhnA4-44" edge="1">
          <mxGeometry relative="1" as="geometry">
            <mxPoint x="-60" y="420" as="targetPoint" />
            <Array as="points">
              <mxPoint x="721" y="590" />
              <mxPoint x="-59" y="590" />
              <mxPoint x="-59" y="412" />
            </Array>
          </mxGeometry>
        </mxCell>
        <mxCell id="HS5GAoDIYZInRsCRhnA4-125" style="edgeStyle=orthogonalEdgeStyle;rounded=0;orthogonalLoop=1;jettySize=auto;html=1;strokeColor=light-dark(#000000,#FF0000);" parent="1" source="Pj5b9IcGemmlTNtjO2-E-64" edge="1">
          <mxGeometry relative="1" as="geometry">
            <mxPoint x="100" y="470" as="targetPoint" />
            <Array as="points">
              <mxPoint x="568" y="400" />
              <mxPoint x="101" y="400" />
            </Array>
          </mxGeometry>
        </mxCell>
        <mxCell id="HS5GAoDIYZInRsCRhnA4-128" style="edgeStyle=orthogonalEdgeStyle;rounded=0;orthogonalLoop=1;jettySize=auto;html=1;strokeColor=light-dark(#000000,#FF0000);" parent="1" edge="1">
          <mxGeometry relative="1" as="geometry">
            <Array as="points">
              <mxPoint x="475" y="350" />
              <mxPoint x="60" y="350" />
            </Array>
            <mxPoint x="475" y="360" as="sourcePoint" />
            <mxPoint x="60" y="300" as="targetPoint" />
          </mxGeometry>
        </mxCell>
        <mxCell id="HS5GAoDIYZInRsCRhnA4-129" value="&lt;b&gt;&lt;span style=&quot;font-size: 11pt; line-height: 107%;&quot;&gt;&lt;font color=&quot;#00ffff&quot;&gt;Belongs_to&lt;/font&gt;&lt;/span&gt;&lt;/b&gt;" style="text;strokeColor=none;fillColor=none;html=1;fontSize=16;fontStyle=1;verticalAlign=middle;align=center;fontFamily=Helvetica;fontColor=#00FF00;" parent="1" vertex="1">
          <mxGeometry x="410" y="270" width="100" height="40" as="geometry" />
        </mxCell>
        <mxCell id="HS5GAoDIYZInRsCRhnA4-130" style="edgeStyle=orthogonalEdgeStyle;rounded=0;orthogonalLoop=1;jettySize=auto;html=1;entryX=0.083;entryY=1;entryDx=0;entryDy=0;entryPerimeter=0;strokeColor=light-dark(#000000,#FF0000);" parent="1" source="HS5GAoDIYZInRsCRhnA4-117" target="X7baBOl6zEnkR3U6Garj-144" edge="1">
          <mxGeometry relative="1" as="geometry">
            <Array as="points">
              <mxPoint x="570" y="690" />
              <mxPoint x="570" y="630" />
              <mxPoint x="158" y="630" />
            </Array>
          </mxGeometry>
        </mxCell>
        <mxCell id="HS5GAoDIYZInRsCRhnA4-132" style="edgeStyle=orthogonalEdgeStyle;rounded=0;orthogonalLoop=1;jettySize=auto;html=1;entryX=0.103;entryY=0.975;entryDx=0;entryDy=0;entryPerimeter=0;strokeColor=light-dark(#000000,#FF0000);" parent="1" source="Pj5b9IcGemmlTNtjO2-E-79" target="X7baBOl6zEnkR3U6Garj-159" edge="1">
          <mxGeometry relative="1" as="geometry">
            <Array as="points">
              <mxPoint x="900" y="659" />
            </Array>
          </mxGeometry>
        </mxCell>
        <mxCell id="HS5GAoDIYZInRsCRhnA4-133" value="&lt;font color=&quot;#00ffff&quot;&gt;&lt;span style=&quot;font-size: 14.6667px;&quot;&gt;Belongs_to&lt;/span&gt;&lt;/font&gt;" style="text;strokeColor=none;fillColor=none;html=1;fontSize=16;fontStyle=1;verticalAlign=middle;align=center;fontFamily=Helvetica;fontColor=#00FF00;" parent="1" vertex="1">
          <mxGeometry x="850" y="420" width="100" height="40" as="geometry" />
        </mxCell>
        <mxCell id="HS5GAoDIYZInRsCRhnA4-134" value="" style="shape=table;startSize=0;container=1;collapsible=0;childLayout=tableLayout;fontSize=16;" parent="1" vertex="1">
          <mxGeometry x="440" y="80" width="127" height="40" as="geometry" />
        </mxCell>
        <mxCell id="HS5GAoDIYZInRsCRhnA4-135" value="" style="shape=tableRow;horizontal=0;startSize=0;swimlaneHead=0;swimlaneBody=0;strokeColor=inherit;top=0;left=0;bottom=0;right=0;collapsible=0;dropTarget=0;fillColor=none;points=[[0,0.5],[1,0.5]];portConstraint=eastwest;fontSize=16;" parent="HS5GAoDIYZInRsCRhnA4-134" vertex="1">
          <mxGeometry width="127" height="40" as="geometry" />
        </mxCell>
        <mxCell id="HS5GAoDIYZInRsCRhnA4-136" value="&lt;span style=&quot;font-size: 14.6667px;&quot;&gt;phone_number&amp;nbsp;&lt;/span&gt;" style="shape=partialRectangle;html=1;whiteSpace=wrap;connectable=0;strokeColor=inherit;overflow=hidden;fillColor=none;top=0;left=0;bottom=0;right=0;pointerEvents=1;fontSize=16;" parent="HS5GAoDIYZInRsCRhnA4-135" vertex="1">
          <mxGeometry width="127" height="40" as="geometry">
            <mxRectangle width="127" height="40" as="alternateBounds" />
          </mxGeometry>
        </mxCell>
        <mxCell id="HS5GAoDIYZInRsCRhnA4-137" value="" style="shape=table;startSize=0;container=1;collapsible=0;childLayout=tableLayout;fontSize=16;" parent="1" vertex="1">
          <mxGeometry x="567" y="80" width="90" height="40" as="geometry" />
        </mxCell>
        <mxCell id="HS5GAoDIYZInRsCRhnA4-138" value="" style="shape=tableRow;horizontal=0;startSize=0;swimlaneHead=0;swimlaneBody=0;strokeColor=inherit;top=0;left=0;bottom=0;right=0;collapsible=0;dropTarget=0;fillColor=none;points=[[0,0.5],[1,0.5]];portConstraint=eastwest;fontSize=16;" parent="HS5GAoDIYZInRsCRhnA4-137" vertex="1">
          <mxGeometry width="90" height="40" as="geometry" />
        </mxCell>
        <mxCell id="HS5GAoDIYZInRsCRhnA4-139" value="&lt;span style=&quot;font-size: 14.6667px;&quot;&gt;email&lt;/span&gt;" style="shape=partialRectangle;html=1;whiteSpace=wrap;connectable=0;strokeColor=inherit;overflow=hidden;fillColor=none;top=0;left=0;bottom=0;right=0;pointerEvents=1;fontSize=16;" parent="HS5GAoDIYZInRsCRhnA4-138" vertex="1">
          <mxGeometry width="90" height="40" as="geometry">
            <mxRectangle width="90" height="40" as="alternateBounds" />
          </mxGeometry>
        </mxCell>
        <mxCell id="HS5GAoDIYZInRsCRhnA4-140" value="" style="shape=table;startSize=0;container=1;collapsible=0;childLayout=tableLayout;fontSize=16;" parent="1" vertex="1">
          <mxGeometry x="950" y="80" width="90" height="40" as="geometry" />
        </mxCell>
        <mxCell id="HS5GAoDIYZInRsCRhnA4-141" value="" style="shape=tableRow;horizontal=0;startSize=0;swimlaneHead=0;swimlaneBody=0;strokeColor=inherit;top=0;left=0;bottom=0;right=0;collapsible=0;dropTarget=0;fillColor=none;points=[[0,0.5],[1,0.5]];portConstraint=eastwest;fontSize=16;" parent="HS5GAoDIYZInRsCRhnA4-140" vertex="1">
          <mxGeometry width="90" height="40" as="geometry" />
        </mxCell>
        <mxCell id="HS5GAoDIYZInRsCRhnA4-142" value="&lt;span style=&quot;font-size: 14.6667px;&quot;&gt;&lt;u&gt;name&lt;/u&gt;&lt;/span&gt;" style="shape=partialRectangle;html=1;whiteSpace=wrap;connectable=0;strokeColor=inherit;overflow=hidden;fillColor=none;top=0;left=0;bottom=0;right=0;pointerEvents=1;fontSize=16;" parent="HS5GAoDIYZInRsCRhnA4-141" vertex="1">
          <mxGeometry width="90" height="40" as="geometry">
            <mxRectangle width="90" height="40" as="alternateBounds" />
          </mxGeometry>
        </mxCell>
        <mxCell id="HS5GAoDIYZInRsCRhnA4-143" style="edgeStyle=orthogonalEdgeStyle;rounded=0;orthogonalLoop=1;jettySize=auto;html=1;entryX=0.08;entryY=1.025;entryDx=0;entryDy=0;entryPerimeter=0;strokeColor=light-dark(#000000,#FF0000);" parent="1" source="HS5GAoDIYZInRsCRhnA4-90" target="X7baBOl6zEnkR3U6Garj-181" edge="1">
          <mxGeometry relative="1" as="geometry">
            <Array as="points">
              <mxPoint x="1235" y="480" />
              <mxPoint x="1460" y="480" />
              <mxPoint x="1460" y="300" />
              <mxPoint x="975" y="300" />
            </Array>
          </mxGeometry>
        </mxCell>
        <mxCell id="HS5GAoDIYZInRsCRhnA4-144" style="edgeStyle=orthogonalEdgeStyle;rounded=0;orthogonalLoop=1;jettySize=auto;html=1;entryX=0.01;entryY=1;entryDx=0;entryDy=0;entryPerimeter=0;strokeColor=light-dark(#000000,#FF0000);" parent="1" source="HS5GAoDIYZInRsCRhnA4-93" target="X7baBOl6zEnkR3U6Garj-144" edge="1">
          <mxGeometry relative="1" as="geometry">
            <Array as="points">
              <mxPoint x="1440" y="520" />
              <mxPoint x="1440" y="750" />
              <mxPoint x="116" y="750" />
            </Array>
          </mxGeometry>
        </mxCell>
        <mxCell id="HS5GAoDIYZInRsCRhnA4-147" style="edgeStyle=orthogonalEdgeStyle;rounded=0;orthogonalLoop=1;jettySize=auto;html=1;strokeColor=light-dark(#000000,#FF0000);" parent="1" source="Pj5b9IcGemmlTNtjO2-E-82" target="X7baBOl6zEnkR3U6Garj-166" edge="1">
          <mxGeometry relative="1" as="geometry">
            <Array as="points">
              <mxPoint x="1030" y="430" />
              <mxPoint x="880" y="430" />
              <mxPoint x="880" y="380" />
            </Array>
          </mxGeometry>
        </mxCell>
      </root>
    </mxGraphModel>
  </diagram>
</mxfile>
